<svg id="visual" viewBox="0 0 960 540" width="960" height="540" xmlns="http://www.w3.org/2000/svg" xmlns:xlink="http://www.w3.org/1999/xlink" version="1.1"><rect x="0" y="0" width="960" height="540" fill="#fff"></rect><defs><linearGradient id="grad1_0" x1="43.8%" y1="0%" x2="100%" y2="100%"><stop offset="14.444444444444446%" stop-color="#0288d1" stop-opacity="1"></stop><stop offset="85.55555555555554%" stop-color="#0288d1" stop-opacity="1"></stop></linearGradient></defs><defs><linearGradient id="grad1_1" x1="43.8%" y1="0%" x2="100%" y2="100%"><stop offset="14.444444444444446%" stop-color="#0288d1" stop-opacity="1"></stop><stop offset="85.55555555555554%" stop-color="#a1c1e9" stop-opacity="1"></stop></linearGradient></defs><defs><linearGradient id="grad1_2" x1="43.8%" y1="0%" x2="100%" y2="100%"><stop offset="14.444444444444446%" stop-color="#ffffff" stop-opacity="1"></stop><stop offset="85.55555555555554%" stop-color="#a1c1e9" stop-opacity="1"></stop></linearGradient></defs><defs><linearGradient id="grad2_0" x1="0%" y1="0%" x2="56.3%" y2="100%"><stop offset="14.444444444444446%" stop-color="#0288d1" stop-opacity="1"></stop><stop offset="85.55555555555554%" stop-color="#0288d1" stop-opacity="1"></stop></linearGradient></defs><defs><linearGradient id="grad2_1" x1="0%" y1="0%" x2="56.3%" y2="100%"><stop offset="14.444444444444446%" stop-color="#a1c1e9" stop-opacity="1"></stop><stop offset="85.55555555555554%" stop-color="#0288d1" stop-opacity="1"></stop></linearGradient></defs><defs><linearGradient id="grad2_2" x1="0%" y1="0%" x2="56.3%" y2="100%"><stop offset="14.444444444444446%" stop-color="#a1c1e9" stop-opacity="1"></stop><stop offset="85.55555555555554%" stop-color="#ffffff" stop-opacity="1"></stop></linearGradient></defs><g transform="translate(960, 0)"><path d="M0 540C-66.7 518.6 -133.5 497.1 -194.4 469.3C-255.4 441.5 -310.5 407.3 -364.2 364.2C-417.8 321 -469.8 268.8 -498.9 206.6C-527.9 144.5 -534 72.2 -540 0L0 0Z" fill="#d1e0f4"></path><path d="M0 360C-44.5 345.7 -89 331.4 -129.6 312.9C-170.2 294.3 -207 271.6 -242.8 242.8C-278.5 214 -313.2 179.2 -332.6 137.8C-352 96.3 -356 48.2 -360 0L0 0Z" fill="#6ba4dd"></path><path d="M0 180C-22.2 172.9 -44.5 165.7 -64.8 156.4C-85.1 147.2 -103.5 135.8 -121.4 121.4C-139.3 107 -156.6 89.6 -166.3 68.9C-176 48.2 -178 24.1 -180 0L0 0Z" fill="#0288d1"></path></g></svg>